<svg width="50" height="46" viewBox="0 0 50 46" fill="none" xmlns="http://www.w3.org/2000/svg">
<path d="M27.0835 6.23378C31.5891 5.0527 36.5476 6.03103 39.9962 9.20369C43.4447 12.3763 44.5081 16.9382 43.2243 21.0833M31.1187 11.4311C32.728 11.1362 34.5815 11.647 35.9609 12.9161C37.3404 14.1851 37.8956 15.8904 37.575 17.3709" stroke="#10C5F8" stroke-width="3.125" stroke-linecap="round" stroke-linejoin="round"/>
<path d="M31.5944 40.0267C33.431 40.3244 35.3191 40.3244 37.1556 40.0267C40.1075 39.5482 42.4852 37.7249 43.3041 35.3119L43.4779 34.8001C43.6584 34.268 43.75 33.7178 43.75 33.1648C43.75 30.7266 41.3798 28.75 38.4561 28.75H30.2939C27.3702 28.75 25 30.7266 25 33.1648C25 33.7178 25.0916 34.268 25.2722 34.8L25.4459 35.3119C26.2649 37.7249 28.6425 39.5482 31.5944 40.0267ZM31.5944 40.0267C18.8374 37.8521 8.85642 28.6696 6.49271 16.9331M6.49271 16.9331C6.16909 15.2435 6.1691 13.5065 6.49272 11.8169C7.01287 9.10113 8.99467 6.91366 11.6175 6.1602L12.1739 6.00038C12.7521 5.83425 13.3503 5.75 13.9513 5.75C16.6015 5.75 18.75 7.93055 18.75 10.6204L18.75 18.1296C18.75 20.8195 16.6015 23 13.9513 23C13.3503 23 12.7521 22.9157 12.1739 22.7496L11.6175 22.5898C8.99467 21.8363 7.01287 19.6489 6.49271 16.9331Z" stroke="#10C5F8" stroke-width="3.125"/>
</svg>
