<svg width="50" height="38" viewBox="0 0 50 38" fill="none" xmlns="http://www.w3.org/2000/svg">
<path d="M8.96319 10.2903L21.0053 16.8289C23.395 18.1265 26.6053 18.1265 28.995 16.8289L41.0371 10.2903M6.0114 23.9875C4.94086 20.711 4.94086 17.2851 6.0114 14.0086C7.41276 9.71945 11.8877 6.40316 17.5638 5.44728L18.5094 5.28804C22.7847 4.56805 27.2156 4.56805 31.4909 5.28804L32.4365 5.44728C38.1126 6.40316 42.5876 9.71946 43.9889 14.0086C45.0595 17.2851 45.0595 20.711 43.9889 23.9875C42.5876 28.2766 38.1126 31.5929 32.4365 32.5488L31.4909 32.7081C27.2156 33.428 22.7847 33.428 18.5094 32.7081L17.5638 32.5488C11.8877 31.5929 7.41276 28.2766 6.0114 23.9875Z" stroke="#10C5F8" stroke-width="3.125" stroke-linecap="round"/>
</svg>
